HIERARCHY
ROOT Hips
{
	OFFSET 50.843700 0.717040 84.458603
	CHANNELS 6 Xposition Yposition Zposition Xrotation Yrotation Zrotation
	JOINT spine
	{
		OFFSET 0.000000 -0.342408 5.954376
		CHANNELS 3 Xrotation Yrotation Zrotation
		JOINT spine1
		{
			OFFSET 0.000000 -0.000001 8.856018
			CHANNELS 3 Xrotation Yrotation Zrotation
			JOINT spine2
			{
				OFFSET 0.000000 -0.000001 8.485672
				CHANNELS 3 Xrotation Yrotation Zrotation
				JOINT Neck
				{
					OFFSET 0.000000 -1.038704 21.786301
					CHANNELS 3 Xrotation Yrotation Zrotation
					JOINT Head
					{
						OFFSET 0.000000 -0.000001 6.582199
						CHANNELS 3 Xrotation Yrotation Zrotation
						End Site
						{
							OFFSET 0.000000 5.254357 15.932602
						}
					}
				}
				JOINT RightShoulder
				{
					OFFSET -3.573071 0.497523 9.163864
					CHANNELS 3 Xrotation Yrotation Zrotation
					JOINT RightArm
					{
						OFFSET 0.000000 -0.000002 12.019196
						CHANNELS 3 Xrotation Yrotation Zrotation
						JOINT RightArmRoll
						{
							OFFSET 0.000000 -0.000001 6.067551
							CHANNELS 3 Xrotation Yrotation Zrotation
							JOINT RightForeArm
							{
								OFFSET 0.000000 -0.000003 17.672607
								CHANNELS 3 Xrotation Yrotation Zrotation
								JOINT RightForeArmRoll
								{
									OFFSET 0.000000 -0.000001 6.808716
									CHANNELS 3 Xrotation Yrotation Zrotation
									JOINT RightHand
									{
										OFFSET 0.000000 -0.000002 13.663605
										CHANNELS 3 Xrotation Yrotation Zrotation
										End Site
										{
											OFFSET 0.000000 -0.000000 0.100006
										}
									}
								}
							}
						}
					}
				}
				JOINT LeftShoulder
				{
					OFFSET 3.573071 0.497523 9.163864
					CHANNELS 3 Xrotation Yrotation Zrotation
					JOINT LeftArm
					{
						OFFSET 0.000000 -0.000002 12.019196
						CHANNELS 3 Xrotation Yrotation Zrotation
						JOINT LeftArmRoll
						{
							OFFSET 0.000000 -0.000001 6.067535
							CHANNELS 3 Xrotation Yrotation Zrotation
							JOINT LeftForeArm
							{
								OFFSET 0.000000 -0.000003 17.672592
								CHANNELS 3 Xrotation Yrotation Zrotation
								JOINT LeftForeArmRoll
								{
									OFFSET 0.000000 -0.000001 6.808716
									CHANNELS 3 Xrotation Yrotation Zrotation
									JOINT LeftHand
									{
										OFFSET 0.000000 -0.000002 13.663605
										CHANNELS 3 Xrotation Yrotation Zrotation
										End Site
										{
											OFFSET 0.000000 -0.000000 0.100006
										}
									}
								}
							}
						}
					}
				}
			}
		}
	}
	JOINT RightUpLeg
	{
		OFFSET -5.277740 0.811858 -0.967796
		CHANNELS 3 Xrotation Yrotation Zrotation
		JOINT RightUpLegRoll
		{
			OFFSET 0.000000 -0.000003 16.021400
			CHANNELS 3 Xrotation Yrotation Zrotation
			JOINT RightLeg
			{
				OFFSET 0.000000 0.000003 -19.840103
				CHANNELS 3 Xrotation Yrotation Zrotation
				JOINT RightLegRoll
				{
					OFFSET 0.000000 -0.000003 19.904999
					CHANNELS 3 Xrotation Yrotation Zrotation
					JOINT RightFoot
					{
						OFFSET 0.000000 -0.000003 16.567497
						CHANNELS 3 Xrotation Yrotation Zrotation
						JOINT RightToeBase
						{
							OFFSET 0.000000 -0.000002 13.849602
							CHANNELS 3 Xrotation Yrotation Zrotation
							End Site
							{
								OFFSET 0.005871 0.773116 6.707275
							}
						}
					}
				}
			}
		}
	}
	JOINT LeftUpLeg
	{
		OFFSET 5.277740 0.811858 -0.967796
		CHANNELS 3 Xrotation Yrotation Zrotation
		JOINT LeftUpLegRoll
		{
			OFFSET 0.000000 -0.000003 16.021500
			CHANNELS 3 Xrotation Yrotation Zrotation
			JOINT LeftLeg
			{
				OFFSET 0.000000 -0.000003 19.840004
				CHANNELS 3 Xrotation Yrotation Zrotation
				JOINT LeftLegRoll
				{
					OFFSET 0.000000 -0.000003 20.089005
					CHANNELS 3 Xrotation Yrotation Zrotation
					JOINT LeftFoot
					{
						OFFSET 0.000000 -0.000003 16.383499
						CHANNELS 3 Xrotation Yrotation Zrotation
						JOINT LeftToeBase
						{
							OFFSET 0.000000 -0.000002 13.849594
							CHANNELS 3 Xrotation Yrotation Zrotation
							End Site
							{
								OFFSET -0.026310 0.773116 6.707275
							}
						}
					}
				}
			}
		}
	}
}
MOTION
Frames: 6
Frame Time: 0.041667
47.699902 6.125254 78.701393 3.997552 0.924953 4.825724 -1.541173 -0.119313 0.056896 0.920576 -0.239624 0.119262 2.565662 -0.238179 0.122151 -36.234314 28.191643 3.049327 22.434912 -30.016796 -4.840871 -19.042629 -19.697992 -22.764686 -884.068868 -186.381478 -817.726640 -0.000000 0.000001 0.000001 17.940627 3.659658 -2.701125 -0.000004 0.000007 -2.999669 -5.000142 -7.999938 0.000000 -24.235470 40.413963 29.523602 -531.574007 197.262803 447.153115 0.000002 0.000001 -0.000002 40.929506 -3.369004 3.573899 0.000000 -0.000004 2.999998 -5.000162 7.999950 -0.000005 -16.476074 -162.264968 1.662543 -179.999991 0.000004 -1.401004 152.127533 6.113058 0.400410 -0.000000 0.000001 1.057731 71.992885 6.940740 1.740361 28.525232 -7.168367 3.701913 -19.242806 -199.767283 -0.377890 -0.000005 -0.000005 -1.581439 -28.406139 -5.131677 -0.679031 -0.000003 0.000002 -0.670192 69.427213 -7.250801 -1.135016 28.728650 7.144236 -3.922625 
47.734600 6.131577 78.982285 4.013114 0.968409 4.789123 -1.585983 -0.117273 0.057570 0.830963 -0.235615 0.119609 2.476052 -0.234167 0.122421 -36.026454 27.978953 2.993353 22.617652 -29.833184 -4.726301 -18.884447 -20.272111 -22.504234 -883.840576 -186.697333 -817.932802 -0.000001 0.000000 -0.000001 16.649204 3.668379 -2.652517 -0.000005 0.000006 -2.999989 -5.000144 -7.999938 0.000002 -24.124631 40.749933 29.365333 -531.210204 196.399166 447.574592 -0.000003 0.000001 0.000000 41.236021 -3.362788 3.584497 0.000001 -0.000004 3.000001 -5.000164 7.999950 -0.000009 -16.154302 -162.354758 1.793085 -179.999991 0.000007 -1.398995 152.808107 5.924165 0.334292 -0.000003 0.000000 0.930696 71.490811 6.995091 1.663483 28.534958 -7.167313 3.713788 -18.792191 -199.857072 -0.631254 -0.000006 -0.000005 -1.579620 -27.562200 -4.923659 -0.612875 -0.000001 0.000003 -0.550345 68.965048 -7.299116 -1.078786 28.695602 7.148432 -3.883278 
47.698799 6.083665 79.272011 4.025588 0.995211 4.759944 -1.629475 -0.112920 0.058033 0.743985 -0.226975 0.119339 2.389068 -0.225532 0.122006 -35.807765 27.801136 2.947825 22.776849 -29.689115 -4.613942 -18.719617 -20.830357 -22.239538 -883.640861 -187.083690 -818.116179 0.000000 0.000000 0.000000 15.333614 3.675603 -2.601782 -0.000005 0.000006 -3.000438 -5.000144 -7.999940 -0.000000 -24.007063 41.119392 29.198447 -530.847111 195.501283 448.001397 0.000001 -0.000001 -0.000000 41.554154 -3.356223 3.595358 -0.000000 -0.000004 3.000001 -5.000165 7.999949 -0.000006 -15.846500 -162.436816 1.917283 -179.999991 0.000006 -1.398995 153.450390 5.754965 0.275317 -0.000003 0.000002 0.821025 71.044698 7.043337 1.597969 28.492887 -7.172553 3.662226 -18.352906 -199.905225 -0.851753 -0.000005 -0.000005 -1.578688 -26.757719 -4.743676 -0.556285 -0.000002 0.000002 -0.446462 68.559793 -7.339382 -1.034894 28.619690 7.158020 -3.791672 
47.615799 6.026357 79.583992 4.042401 1.011627 4.737351 -1.674964 -0.107144 0.058312 0.653002 -0.215485 0.118410 2.298086 -0.214055 0.120883 -35.559112 27.655175 2.910214 22.907831 -29.580013 -4.501140 -18.536713 -21.380700 -21.952812 -883.468741 -187.596541 -818.279393 -0.000000 -0.000001 0.000000 13.911478 3.681232 -2.545709 -0.000005 0.000006 -3.001040 -5.000145 -7.999938 0.000002 -23.875392 41.527127 29.012192 -530.489154 194.551382 448.454266 -0.000000 0.000000 -0.000003 41.922578 -3.348542 3.607863 0.000001 -0.000004 2.999999 -5.000165 7.999949 -0.000009 -15.552240 -162.513901 2.036472 -179.999991 0.000003 -1.400006 154.071118 5.598079 0.220412 -0.000002 0.000001 0.722721 70.634886 7.084104 1.544987 28.401609 -7.183508 3.550841 -17.923984 -199.925224 -1.046086 -0.000004 -0.000004 -1.578690 -25.970647 -4.584163 -0.505242 -0.000002 0.000003 -0.354031 68.191161 -7.373559 -0.999403 28.500172 7.172669 -3.647230 
47.690399 6.043234 79.885391 4.062113 1.018495 4.720903 -1.721843 -0.100048 0.058435 0.559237 -0.201349 0.116937 2.204323 -0.199938 0.119174 -35.285369 27.538174 2.879525 23.014058 -29.502568 -4.387894 -18.337957 -21.921723 -21.647192 -883.318750 -188.204865 -818.426161 -0.000001 0.000000 -0.000002 12.413574 3.685156 -2.486136 -0.000005 0.000007 -3.001770 -5.000145 -7.999937 -0.000001 -23.730497 41.967766 28.807798 -530.141088 193.554188 448.931177 -0.000002 0.000000 -0.000001 42.330490 -3.339958 3.621683 0.000000 -0.000004 3.000000 -5.000164 7.999949 -0.000009 -15.269117 -162.587653 2.151417 -179.999991 0.000004 -1.402998 154.671000 5.453990 0.168842 -0.000002 0.000001 0.634901 70.258925 7.117753 1.503425 28.267590 -7.198918 3.387295 -17.504392 -199.919965 -1.215931 -0.000004 -0.000004 -1.579490 -25.200220 -4.443577 -0.458890 -0.000001 0.000003 -0.272120 67.856406 -7.401845 -0.971843 28.342922 7.191098 -3.456950 
47.616299 5.975538 80.192894 4.083232 1.016643 4.710189 -1.769494 -0.091735 0.058428 0.463917 -0.184770 0.115038 2.109001 -0.183385 0.117000 -34.991855 27.446830 2.855177 23.099088 -29.453063 -4.274526 -18.125843 -22.452317 -21.325924 -883.186408 -188.877612 -818.560469 -0.000000 -0.000001 0.000001 10.870576 3.687326 -2.424756 -0.000005 0.000006 -3.002609 -5.000143 -7.999938 -0.000001 -23.573650 42.435576 28.586724 -529.807283 192.514892 449.430081 0.000002 0.000001 0.000001 42.766857 -3.330712 3.636458 0.000000 -0.000005 2.999997 -5.000164 7.999948 -0.000006 -14.995344 -162.658865 2.262401 -179.999991 0.000003 -1.406002 155.251402 5.319569 0.120189 -0.000002 0.000000 0.556682 69.914656 7.144702 1.471879 28.096700 -7.217471 3.179184 -17.092521 -199.890527 -1.363697 -0.000005 -0.000004 -1.580969 -24.445790 -4.320303 -0.416534 -0.000001 0.000006 -0.199784 67.552920 -7.424623 -0.951470 28.153314 7.211991 -3.227757 
